ffmpeg version 3.4.6-0ubuntu0.18.04.1 Copyright (c) 2000-2019 the FFmpeg developers
  built with gcc 7 (Ubuntu 7.3.0-16ubuntu3)
  configuration: --prefix=/usr --extra-version=0ubuntu0.18.04.1 --toolchain=hardened --libdir=/usr/lib/x86_64-linux-gnu --incdir=/usr/include/x86_64-linux-gnu --enable-gpl --disable-stripping --enable-avresample --enable-avisynth --enable-gnutls --enable-ladspa --enable-libass --enable-libbluray --enable-libbs2b --enable-libcaca --enable-libcdio --enable-libflite --enable-libfontconfig --enable-libfreetype --enable-libfribidi --enable-libgme --enable-libgsm --enable-libmp3lame --enable-libmysofa --enable-libopenjpeg --enable-libopenmpt --enable-libopus --enable-libpulse --enable-librubberband --enable-librsvg --enable-libshine --enable-libsnappy --enable-libsoxr --enable-libspeex --enable-libssh --enable-libtheora --enable-libtwolame --enable-libvorbis --enable-libvpx --enable-libwavpack --enable-libwebp --enable-libx265 --enable-libxml2 --enable-libxvid --enable-libzmq --enable-libzvbi --enable-omx --enable-openal --enable-opengl --enable-sdl2 --enable-libdc1394 --enable-libdrm --enable-libiec61883 --enable-chromaprint --enable-frei0r --enable-libopencv --enable-libx264 --enable-shared
  libavutil      55. 78.100 / 55. 78.100
  libavcodec     57.107.100 / 57.107.100
  libavformat    57. 83.100 / 57. 83.100
  libavdevice    57. 10.100 / 57. 10.100
  libavfilter     6.107.100 /  6.107.100
  libavresample   3.  7.  0 /  3.  7.  0
  libswscale      4.  8.100 /  4.  8.100
  libswresample   2.  9.100 /  2.  9.100
  libpostproc    54.  7.100 / 54.  7.100
Input #0, image2pipe, from 'pipe:':
  Duration: N/A, bitrate: N/A
    Stream #0:0: Video: ppm, rgb24, 320x240, 20 fps, 20 tbr, 20 tbn, 20 tbc
Stream mapping:
  Stream #0:0 -> #0:0 (ppm (native) -> h264 (libx264))
[libx264 @ 0x56267f929f40] using cpu capabilities: MMX2 SSE2Fast SSSE3 SSE4.2 AVX FMA3 BMI2 AVX2
[libx264 @ 0x56267f929f40] profile High, level 1.3
[libx264 @ 0x56267f929f40] 264 - core 152 r2854 e9a5903 - H.264/MPEG-4 AVC codec - Copyleft 2003-2017 - http://www.videolan.org/x264.html - options: cabac=1 ref=3 deblock=1:0:0 analyse=0x3:0x113 me=hex subme=7 psy=1 psy_rd=1.00:0.00 mixed_ref=1 me_range=16 chroma_me=1 trellis=1 8x8dct=1 cqm=0 deadzone=21,11 fast_pskip=1 chroma_qp_offset=-2 threads=1 lookahead_threads=1 sliced_threads=0 nr=0 decimate=1 interlaced=0 bluray_compat=0 constrained_intra=0 bframes=3 b_pyramid=2 b_adapt=1 b_bias=0 direct=1 weightb=1 open_gop=0 weightp=2 keyint=250 keyint_min=20 scenecut=40 intra_refresh=0 rc_lookahead=40 rc=abr mbtree=1 bitrate=400 ratetol=1.0 qcomp=0.60 qpmin=0 qpmax=69 qpstep=4 ip_ratio=1.40 aq=1:1.00
Output #0, mp4, to './mission_records/7ac61211-2922-4a8c-90b5-1de5705df3a9/video.mp4':
  Metadata:
    encoder         : Lavf57.83.100
    Stream #0:0: Video: h264 (libx264) (avc1 / 0x31637661), yuv420p, 320x240, q=-1--1, 400 kb/s, 20 fps, 10240 tbn, 20 tbc
    Metadata:
      encoder         : Lavc57.107.100 libx264
    Side data:
      cpb: bitrate max/min/avg: 0/0/400000 buffer size: 0 vbv_delay: -1
frame=   33 fps=0.0 q=0.0 size=       0kB time=00:00:00.00 bitrate=N/A speed=   0x    frame=   43 fps= 38 q=29.0 size=       0kB time=-00:00:00.04 bitrate=N/A speed=N/A    frame=   53 fps= 32 q=23.0 size=       0kB time=00:00:00.45 bitrate=   0.9kbits/s speed=0.268x    frame=   62 fps= 28 q=26.0 size=       0kB time=00:00:00.90 bitrate=   0.4kbits/s speed=0.404x    frame=   71 fps= 25 q=27.0 size=       0kB time=00:00:01.35 bitrate=   0.3kbits/s speed=0.482x    frame=   72 fps= 21 q=27.0 Lsize=     189kB time=00:00:03.45 bitrate= 449.4kbits/s speed=1.02x    
video:188kB audio:0kB subtitle:0kB other streams:0kB global headers:0kB muxing overhead: 0.634466%
[libx264 @ 0x56267f929f40] frame I:5     Avg QP:19.65  size:  4218
[libx264 @ 0x56267f929f40] frame P:60    Avg QP:21.70  size:  2726
[libx264 @ 0x56267f929f40] frame B:7     Avg QP:22.36  size:  1037
[libx264 @ 0x56267f929f40] consecutive B-frames: 86.1%  0.0%  8.3%  5.6%
[libx264 @ 0x56267f929f40] mb I  I16..4: 27.4% 60.2% 12.4%
[libx264 @ 0x56267f929f40] mb P  I16..4: 21.0% 32.7%  4.4%  P16..4: 20.9%  4.6%  4.2%  0.0%  0.0%    skip:12.2%
[libx264 @ 0x56267f929f40] mb B  I16..4:  9.9%  4.1%  0.6%  B16..8: 27.7%  8.0%  2.3%  direct:12.5%  skip:35.0%  L0:65.6% L1:27.7% BI: 6.8%
[libx264 @ 0x56267f929f40] final ratefactor: 22.27
[libx264 @ 0x56267f929f40] 8x8 transform intra:56.1% inter:72.8%
[libx264 @ 0x56267f929f40] coded y,uvDC,uvAC intra: 45.5% 25.7% 3.0% inter: 14.1% 23.5% 0.1%
[libx264 @ 0x56267f929f40] i16 v,h,dc,p: 15% 54% 10% 20%
[libx264 @ 0x56267f929f40] i8 v,h,dc,ddl,ddr,vr,hd,vl,hu:  5% 24% 42%  4%  5%  3%  7%  3%  7%
[libx264 @ 0x56267f929f40] i4 v,h,dc,ddl,ddr,vr,hd,vl,hu:  7% 31% 26%  5%  7%  4% 10%  3%  8%
[libx264 @ 0x56267f929f40] i8c dc,h,v,p: 57% 35%  1%  7%
[libx264 @ 0x56267f929f40] Weighted P-Frames: Y:11.7% UV:10.0%
[libx264 @ 0x56267f929f40] ref P L0: 68.8%  4.8% 16.7%  8.6%  1.1%
[libx264 @ 0x56267f929f40] ref B L0: 90.7%  9.2%  0.0%
[libx264 @ 0x56267f929f40] ref B L1: 96.4%  3.6%
[libx264 @ 0x56267f929f40] kb/s:426.44
